# xmcd CD database file
#
# Track frame offsets:
#	150
#	12852
#	27672
#	43752
#	60989
#	76220
#	91381
#	107353
#	123135
#	136552
#	156652
#	173104
#	185326
#
# Disc length: 2628 seconds
#
# Revision: 0
# Processed by: cddbd v1.4PL0 Copyright (c) Steve Scherf et al.
# Submitted via: Feurio! 1.65.5ß - http://www.feurio.com
#
DISCID=990a420d
DTITLE=Trick Pony - Trick Pony
DYEAR=1900
DGENRE=Country
TTITLE0=Pour Me
TTITLE1=Party Of One
TTITLE2=Big River (With Johnny Cash and Waylon Jennings)
TTITLE3=Every Other Memory
TTITLE4=More Like Me
TTITLE5=Just What I Do
TTITLE6=Stay In This Moment
TTITLE7=On A Night Like This
TTITLE8=One In A Row
TTITLE9=Now Would Be The Time
TTITLE10=Can't Say That On The Radio
TTITLE11=Spent
TTITLE12=Not Hidden Track
EXTD=(c)2001 WEA\r\n
EXTT0=
EXTT1=
EXTT2=
EXTT3=
EXTT4=
EXTT5=
EXTT6=
EXTT7=
EXTT8=
EXTT9=
EXTT10=
EXTT11=
EXTT12=
PLAYORDER=
